<?xml version="1.0" encoding="UTF-8" standalone="no"?>
<?xml-stylesheet href="../../graphviz.css" type="text/css"?>
<!DOCTYPE svg PUBLIC "-//W3C//DTD SVG 1.1//EN"
 "http://www.w3.org/Graphics/SVG/1.1/DTD/svg11.dtd">
<!-- Generated by graphviz version 2.38.0 (20140413.2041)
 -->
<!-- Title: G Pages: 1 -->
<svg width="530pt" height="260pt"
 viewBox="0.00 0.00 530.05 260.00" xmlns="http://www.w3.org/2000/svg" xmlns:xlink="http://www.w3.org/1999/xlink">
<g id="graph0" class="graph" transform="scale(1 1) rotate(0) translate(4 256)">
<title>G</title>
<polygon fill="white" stroke="none" points="-4,4 -4,-256 526.047,-256 526.047,4 -4,4"/>
<!-- ul -->
<g id="node1" class="node"><title>ul</title>
<polygon fill="none" stroke="black" points="284.271,-234 270.771,-252 243.771,-252 230.271,-234 243.771,-216 270.771,-216 284.271,-234"/>
<text text-anchor="middle" x="257.271" y="-230.3" font-family="Times New Roman,serif" font-size="14.00">ul</text>
</g>
<!-- li1 -->
<g id="node2" class="node"><title>li1</title>
<polygon fill="none" stroke="black" points="149.271,-162 135.771,-180 108.771,-180 95.271,-162 108.771,-144 135.771,-144 149.271,-162"/>
<text text-anchor="middle" x="122.271" y="-158.3" font-family="Times New Roman,serif" font-size="14.00">li</text>
</g>
<!-- ul&#45;&gt;li1 -->
<g id="edge1" class="edge"><title>ul&#45;&gt;li1</title>
<path fill="none" stroke="black" d="M238.215,-223.119C215.3,-211.237 176.642,-191.192 150.318,-177.543"/>
<polygon fill="black" stroke="black" points="151.719,-174.327 141.23,-172.831 148.496,-180.541 151.719,-174.327"/>
</g>
<!-- li2 -->
<g id="node3" class="node"><title>li2</title>
<polygon fill="none" stroke="black" points="284.271,-162 270.771,-180 243.771,-180 230.271,-162 243.771,-144 270.771,-144 284.271,-162"/>
<text text-anchor="middle" x="257.271" y="-158.3" font-family="Times New Roman,serif" font-size="14.00">li</text>
</g>
<!-- ul&#45;&gt;li2 -->
<g id="edge2" class="edge"><title>ul&#45;&gt;li2</title>
<path fill="none" stroke="black" d="M257.271,-215.697C257.271,-207.983 257.271,-198.712 257.271,-190.112"/>
<polygon fill="black" stroke="black" points="260.771,-190.104 257.271,-180.104 253.771,-190.104 260.771,-190.104"/>
</g>
<!-- li3 -->
<g id="node4" class="node"><title>li3</title>
<polygon fill="none" stroke="black" points="419.271,-162 405.771,-180 378.771,-180 365.271,-162 378.771,-144 405.771,-144 419.271,-162"/>
<text text-anchor="middle" x="392.271" y="-158.3" font-family="Times New Roman,serif" font-size="14.00">li</text>
</g>
<!-- ul&#45;&gt;li3 -->
<g id="edge3" class="edge"><title>ul&#45;&gt;li3</title>
<path fill="none" stroke="black" d="M276.327,-223.119C299.242,-211.237 337.9,-191.192 364.224,-177.543"/>
<polygon fill="black" stroke="black" points="366.046,-180.541 373.312,-172.831 362.823,-174.327 366.046,-180.541"/>
</g>
<!-- span1 -->
<g id="node5" class="node"><title>span1</title>
<polygon fill="none" stroke="black" points="64.3147,-90 48.2928,-108 16.2492,-108 0.22737,-90 16.2492,-72 48.2928,-72 64.3147,-90"/>
<text text-anchor="middle" x="32.271" y="-86.3" font-family="Times New Roman,serif" font-size="14.00">span</text>
</g>
<!-- li1&#45;&gt;span1 -->
<g id="edge4" class="edge"><title>li1&#45;&gt;span1</title>
<path fill="none" stroke="black" d="M105.343,-147.834C92.2818,-137.675 73.968,-123.431 58.9424,-111.744"/>
<polygon fill="black" stroke="black" points="61.0297,-108.934 50.9874,-105.557 56.7321,-114.459 61.0297,-108.934"/>
</g>
<!-- button1 -->
<g id="node6" class="node"><title>button1</title>
<polygon fill="none" stroke="black" points="161.824,-90 142.048,-108 102.494,-108 82.718,-90 102.494,-72 142.048,-72 161.824,-90"/>
<text text-anchor="middle" x="122.271" y="-86.3" font-family="Times New Roman,serif" font-size="14.00">button</text>
</g>
<!-- li1&#45;&gt;button1 -->
<g id="edge5" class="edge"><title>li1&#45;&gt;button1</title>
<path fill="none" stroke="black" d="M122.271,-143.697C122.271,-135.983 122.271,-126.712 122.271,-118.112"/>
<polygon fill="black" stroke="black" points="125.771,-118.104 122.271,-108.104 118.771,-118.104 125.771,-118.104"/>
</g>
<!-- span2 -->
<g id="node9" class="node"><title>span2</title>
<polygon fill="none" stroke="black" points="244.315,-90 228.293,-108 196.249,-108 180.227,-90 196.249,-72 228.293,-72 244.315,-90"/>
<text text-anchor="middle" x="212.271" y="-86.3" font-family="Times New Roman,serif" font-size="14.00">span</text>
</g>
<!-- li2&#45;&gt;span2 -->
<g id="edge8" class="edge"><title>li2&#45;&gt;span2</title>
<path fill="none" stroke="black" d="M246.147,-143.697C240.916,-135.559 234.571,-125.689 228.793,-116.701"/>
<polygon fill="black" stroke="black" points="231.618,-114.623 223.267,-108.104 225.73,-118.409 231.618,-114.623"/>
</g>
<!-- button2 -->
<g id="node10" class="node"><title>button2</title>
<polygon fill="none" stroke="black" points="341.824,-90 322.048,-108 282.494,-108 262.718,-90 282.494,-72 322.048,-72 341.824,-90"/>
<text text-anchor="middle" x="302.271" y="-86.3" font-family="Times New Roman,serif" font-size="14.00">button</text>
</g>
<!-- li2&#45;&gt;button2 -->
<g id="edge9" class="edge"><title>li2&#45;&gt;button2</title>
<path fill="none" stroke="black" d="M268.395,-143.697C273.626,-135.559 279.971,-125.689 285.749,-116.701"/>
<polygon fill="black" stroke="black" points="288.812,-118.409 291.275,-108.104 282.924,-114.623 288.812,-118.409"/>
</g>
<!-- span3 -->
<g id="node13" class="node"><title>span3</title>
<polygon fill="none" stroke="black" points="424.315,-90 408.293,-108 376.249,-108 360.227,-90 376.249,-72 408.293,-72 424.315,-90"/>
<text text-anchor="middle" x="392.271" y="-86.3" font-family="Times New Roman,serif" font-size="14.00">span</text>
</g>
<!-- li3&#45;&gt;span3 -->
<g id="edge12" class="edge"><title>li3&#45;&gt;span3</title>
<path fill="none" stroke="black" d="M392.271,-143.697C392.271,-135.983 392.271,-126.712 392.271,-118.112"/>
<polygon fill="black" stroke="black" points="395.771,-118.104 392.271,-108.104 388.771,-118.104 395.771,-118.104"/>
</g>
<!-- button3 -->
<g id="node14" class="node"><title>button3</title>
<polygon fill="none" stroke="black" points="521.824,-90 502.048,-108 462.494,-108 442.718,-90 462.494,-72 502.048,-72 521.824,-90"/>
<text text-anchor="middle" x="482.271" y="-86.3" font-family="Times New Roman,serif" font-size="14.00">button</text>
</g>
<!-- li3&#45;&gt;button3 -->
<g id="edge13" class="edge"><title>li3&#45;&gt;button3</title>
<path fill="none" stroke="black" d="M409.199,-147.834C421.543,-138.233 438.58,-124.982 453.097,-113.691"/>
<polygon fill="black" stroke="black" points="455.555,-116.213 461.3,-107.311 451.257,-110.688 455.555,-116.213"/>
</g>
<!-- span_content1 -->
<g id="node7" class="node"><title>span_content1</title>
<text text-anchor="middle" x="32.271" y="-14.3" font-family="Times New Roman,serif" font-size="14.00">Eggs</text>
</g>
<!-- span1&#45;&gt;span_content1 -->
<g id="edge6" class="edge"><title>span1&#45;&gt;span_content1</title>
<path fill="none" stroke="black" d="M32.271,-71.6966C32.271,-63.9827 32.271,-54.7125 32.271,-46.1124"/>
<polygon fill="black" stroke="black" points="35.7711,-46.1043 32.271,-36.1043 28.7711,-46.1044 35.7711,-46.1043"/>
</g>
<!-- button_content1 -->
<g id="node8" class="node"><title>button_content1</title>
<text text-anchor="middle" x="122.271" y="-14.3" font-family="Times New Roman,serif" font-size="14.00">Delete</text>
</g>
<!-- button1&#45;&gt;button_content1 -->
<g id="edge7" class="edge"><title>button1&#45;&gt;button_content1</title>
<path fill="none" stroke="black" d="M122.271,-71.6966C122.271,-63.9827 122.271,-54.7125 122.271,-46.1124"/>
<polygon fill="black" stroke="black" points="125.771,-46.1043 122.271,-36.1043 118.771,-46.1044 125.771,-46.1043"/>
</g>
<!-- span_content2 -->
<g id="node11" class="node"><title>span_content2</title>
<text text-anchor="middle" x="212.271" y="-14.3" font-family="Times New Roman,serif" font-size="14.00">Milk</text>
</g>
<!-- span2&#45;&gt;span_content2 -->
<g id="edge10" class="edge"><title>span2&#45;&gt;span_content2</title>
<path fill="none" stroke="black" d="M212.271,-71.6966C212.271,-63.9827 212.271,-54.7125 212.271,-46.1124"/>
<polygon fill="black" stroke="black" points="215.771,-46.1043 212.271,-36.1043 208.771,-46.1044 215.771,-46.1043"/>
</g>
<!-- button_content2 -->
<g id="node12" class="node"><title>button_content2</title>
<text text-anchor="middle" x="302.271" y="-14.3" font-family="Times New Roman,serif" font-size="14.00">Delete</text>
</g>
<!-- button2&#45;&gt;button_content2 -->
<g id="edge11" class="edge"><title>button2&#45;&gt;button_content2</title>
<path fill="none" stroke="black" d="M302.271,-71.6966C302.271,-63.9827 302.271,-54.7125 302.271,-46.1124"/>
<polygon fill="black" stroke="black" points="305.771,-46.1043 302.271,-36.1043 298.771,-46.1044 305.771,-46.1043"/>
</g>
<!-- span_content3 -->
<g id="node15" class="node"><title>span_content3</title>
<text text-anchor="middle" x="392.271" y="-14.3" font-family="Times New Roman,serif" font-size="14.00">Bread</text>
</g>
<!-- span3&#45;&gt;span_content3 -->
<g id="edge14" class="edge"><title>span3&#45;&gt;span_content3</title>
<path fill="none" stroke="black" d="M392.271,-71.6966C392.271,-63.9827 392.271,-54.7125 392.271,-46.1124"/>
<polygon fill="black" stroke="black" points="395.771,-46.1043 392.271,-36.1043 388.771,-46.1044 395.771,-46.1043"/>
</g>
<!-- button_content3 -->
<g id="node16" class="node"><title>button_content3</title>
<text text-anchor="middle" x="482.271" y="-14.3" font-family="Times New Roman,serif" font-size="14.00">Delete</text>
</g>
<!-- button3&#45;&gt;button_content3 -->
<g id="edge15" class="edge"><title>button3&#45;&gt;button_content3</title>
<path fill="none" stroke="black" d="M482.271,-71.6966C482.271,-63.9827 482.271,-54.7125 482.271,-46.1124"/>
<polygon fill="black" stroke="black" points="485.771,-46.1043 482.271,-36.1043 478.771,-46.1044 485.771,-46.1043"/>
</g>
</g>
</svg>
