<?xml version="1.0" encoding="UTF-8" standalone="no"?>
<?xml-stylesheet href="../../graphviz.css" type="text/css"?>
<!DOCTYPE svg PUBLIC "-//W3C//DTD SVG 1.1//EN"
 "http://www.w3.org/Graphics/SVG/1.1/DTD/svg11.dtd">
<!-- Generated by graphviz version 2.38.0 (20140413.2041)
 -->
<!-- Title: G Pages: 1 -->
<svg width="170pt" height="188pt"
 viewBox="0.00 0.00 170.05 188.00" xmlns="http://www.w3.org/2000/svg" xmlns:xlink="http://www.w3.org/1999/xlink">
<g id="graph0" class="graph" transform="scale(1 1) rotate(0) translate(4 184)">
<title>G</title>
<polygon fill="white" stroke="none" points="-4,4 -4,-184 166.047,-184 166.047,4 -4,4"/>
<!-- li -->
<g id="node1" class="node"><title>li</title>
<polygon fill="none" stroke="black" points="104.271,-162 90.771,-180 63.771,-180 50.271,-162 63.771,-144 90.771,-144 104.271,-162"/>
<text text-anchor="middle" x="77.271" y="-158.3" font-family="Times New Roman,serif" font-size="14.00">li</text>
</g>
<!-- span -->
<g id="node2" class="node"><title>span</title>
<polygon fill="none" stroke="black" points="64.3147,-90 48.2928,-108 16.2492,-108 0.22737,-90 16.2492,-72 48.2928,-72 64.3147,-90"/>
<text text-anchor="middle" x="32.271" y="-86.3" font-family="Times New Roman,serif" font-size="14.00">span</text>
</g>
<!-- li&#45;&gt;span -->
<g id="edge1" class="edge"><title>li&#45;&gt;span</title>
<path fill="none" stroke="black" d="M66.1474,-143.697C60.916,-135.559 54.5711,-125.689 48.7933,-116.701"/>
<polygon fill="black" stroke="black" points="51.6184,-114.623 43.2667,-108.104 45.7302,-118.409 51.6184,-114.623"/>
</g>
<!-- button -->
<g id="node3" class="node"><title>button</title>
<polygon fill="none" stroke="black" points="161.824,-90 142.048,-108 102.494,-108 82.718,-90 102.494,-72 142.048,-72 161.824,-90"/>
<text text-anchor="middle" x="122.271" y="-86.3" font-family="Times New Roman,serif" font-size="14.00">button</text>
</g>
<!-- li&#45;&gt;button -->
<g id="edge2" class="edge"><title>li&#45;&gt;button</title>
<path fill="none" stroke="black" d="M88.3946,-143.697C93.626,-135.559 99.9709,-125.689 105.749,-116.701"/>
<polygon fill="black" stroke="black" points="108.812,-118.409 111.275,-108.104 102.924,-114.623 108.812,-118.409"/>
</g>
<!-- span_content -->
<g id="node4" class="node"><title>span_content</title>
<text text-anchor="middle" x="32.271" y="-14.3" font-family="Times New Roman,serif" font-size="14.00">Eggs</text>
</g>
<!-- span&#45;&gt;span_content -->
<g id="edge3" class="edge"><title>span&#45;&gt;span_content</title>
<path fill="none" stroke="black" d="M32.271,-71.6966C32.271,-63.9827 32.271,-54.7125 32.271,-46.1124"/>
<polygon fill="black" stroke="black" points="35.7711,-46.1043 32.271,-36.1043 28.7711,-46.1044 35.7711,-46.1043"/>
</g>
<!-- button_content -->
<g id="node5" class="node"><title>button_content</title>
<text text-anchor="middle" x="122.271" y="-14.3" font-family="Times New Roman,serif" font-size="14.00">Delete</text>
</g>
<!-- button&#45;&gt;button_content -->
<g id="edge4" class="edge"><title>button&#45;&gt;button_content</title>
<path fill="none" stroke="black" d="M122.271,-71.6966C122.271,-63.9827 122.271,-54.7125 122.271,-46.1124"/>
<polygon fill="black" stroke="black" points="125.771,-46.1043 122.271,-36.1043 118.771,-46.1044 125.771,-46.1043"/>
</g>
</g>
</svg>
