<?xml version="1.0" encoding="UTF-8" standalone="no"?>
<?xml-stylesheet href="../../graphviz.css" type="text/css"?>
<!DOCTYPE svg PUBLIC "-//W3C//DTD SVG 1.1//EN"
 "http://www.w3.org/Graphics/SVG/1.1/DTD/svg11.dtd">
<!-- Generated by graphviz version 2.38.0 (20140413.2041)
 -->
<!-- Title: G Pages: 1 -->
<svg width="282pt" height="476pt"
 viewBox="0.00 0.00 281.79 476.00" xmlns="http://www.w3.org/2000/svg" xmlns:xlink="http://www.w3.org/1999/xlink">
<g id="graph0" class="graph" transform="scale(1 1) rotate(0) translate(4 472)">
<title>G</title>
<polygon fill="white" stroke="none" points="-4,4 -4,-472 277.788,-472 277.788,4 -4,4"/>
<!-- load_html -->
<g id="node1" class="node"><title>load_html</title>
<ellipse fill="none" stroke="black" cx="117.396" cy="-450" rx="57.6901" ry="18"/>
<text text-anchor="middle" x="117.396" y="-446.3" font-family="Times New Roman,serif" font-size="14.00">Load HTML</text>
</g>
<!-- parse_html -->
<g id="node2" class="node"><title>parse_html</title>
<ellipse fill="none" stroke="black" cx="117.396" cy="-378" rx="58.4896" ry="18"/>
<text text-anchor="middle" x="117.396" y="-374.3" font-family="Times New Roman,serif" font-size="14.00">Parse HTML</text>
</g>
<!-- load_html&#45;&gt;parse_html -->
<g id="edge1" class="edge"><title>load_html&#45;&gt;parse_html</title>
<path fill="none" stroke="black" d="M117.396,-431.697C117.396,-423.983 117.396,-414.712 117.396,-406.112"/>
<polygon fill="black" stroke="black" points="120.896,-406.104 117.396,-396.104 113.896,-406.104 120.896,-406.104"/>
</g>
<!-- load_css -->
<g id="node3" class="node"><title>load_css</title>
<ellipse fill="none" stroke="black" cx="49.3956" cy="-306" rx="49.2915" ry="18"/>
<text text-anchor="middle" x="49.3956" y="-302.3" font-family="Times New Roman,serif" font-size="14.00">Load CSS</text>
</g>
<!-- parse_html&#45;&gt;load_css -->
<g id="edge2" class="edge"><title>parse_html&#45;&gt;load_css</title>
<path fill="none" stroke="black" d="M101.281,-360.411C92.7273,-351.606 82.0631,-340.628 72.6311,-330.919"/>
<polygon fill="black" stroke="black" points="74.8734,-328.204 65.395,-323.47 69.8524,-333.082 74.8734,-328.204"/>
</g>
<!-- load_javascript -->
<g id="node4" class="node"><title>load_javascript</title>
<ellipse fill="none" stroke="black" cx="185.396" cy="-306" rx="68.4888" ry="18"/>
<text text-anchor="middle" x="185.396" y="-302.3" font-family="Times New Roman,serif" font-size="14.00">Load Javascript</text>
</g>
<!-- parse_html&#45;&gt;load_javascript -->
<g id="edge3" class="edge"><title>parse_html&#45;&gt;load_javascript</title>
<path fill="none" stroke="black" d="M133.511,-360.411C141.94,-351.734 152.42,-340.946 161.749,-331.342"/>
<polygon fill="black" stroke="black" points="164.466,-333.568 168.924,-323.956 159.445,-328.69 164.466,-333.568"/>
</g>
<!-- parse_javascript -->
<g id="node5" class="node"><title>parse_javascript</title>
<ellipse fill="none" stroke="black" cx="185.396" cy="-234" rx="69.5877" ry="18"/>
<text text-anchor="middle" x="185.396" y="-230.3" font-family="Times New Roman,serif" font-size="14.00">Parse Javascript</text>
</g>
<!-- load_javascript&#45;&gt;parse_javascript -->
<g id="edge4" class="edge"><title>load_javascript&#45;&gt;parse_javascript</title>
<path fill="none" stroke="black" d="M185.396,-287.697C185.396,-279.983 185.396,-270.712 185.396,-262.112"/>
<polygon fill="black" stroke="black" points="188.896,-262.104 185.396,-252.104 181.896,-262.104 188.896,-262.104"/>
</g>
<!-- finish_html -->
<g id="node6" class="node"><title>finish_html</title>
<ellipse fill="none" stroke="black" cx="185.396" cy="-162" rx="60.3893" ry="18"/>
<text text-anchor="middle" x="185.396" y="-158.3" font-family="Times New Roman,serif" font-size="14.00">Finish HTML</text>
</g>
<!-- parse_javascript&#45;&gt;finish_html -->
<g id="edge5" class="edge"><title>parse_javascript&#45;&gt;finish_html</title>
<path fill="none" stroke="black" d="M185.396,-215.697C185.396,-207.983 185.396,-198.712 185.396,-190.112"/>
<polygon fill="black" stroke="black" points="188.896,-190.104 185.396,-180.104 181.896,-190.104 188.896,-190.104"/>
</g>
<!-- dom_loaded -->
<g id="node7" class="node"><title>dom_loaded</title>
<ellipse fill="none" stroke="black" cx="185.396" cy="-90" rx="88.2844" ry="18"/>
<text text-anchor="middle" x="185.396" y="-86.3" font-family="Times New Roman,serif" font-size="14.00">DOMContentLoaded</text>
</g>
<!-- finish_html&#45;&gt;dom_loaded -->
<g id="edge6" class="edge"><title>finish_html&#45;&gt;dom_loaded</title>
<path fill="none" stroke="black" d="M185.396,-143.697C185.396,-135.983 185.396,-126.712 185.396,-118.112"/>
<polygon fill="black" stroke="black" points="188.896,-118.104 185.396,-108.104 181.896,-118.104 188.896,-118.104"/>
</g>
<!-- js_runs -->
<g id="node8" class="node"><title>js_runs</title>
<ellipse fill="none" stroke="black" cx="185.396" cy="-18" rx="64.9885" ry="18"/>
<text text-anchor="middle" x="185.396" y="-14.3" font-family="Times New Roman,serif" font-size="14.00">Javascript runs</text>
</g>
<!-- dom_loaded&#45;&gt;js_runs -->
<g id="edge7" class="edge"><title>dom_loaded&#45;&gt;js_runs</title>
<path fill="none" stroke="black" d="M185.396,-71.6966C185.396,-63.9827 185.396,-54.7125 185.396,-46.1124"/>
<polygon fill="black" stroke="black" points="188.896,-46.1043 185.396,-36.1043 181.896,-46.1044 188.896,-46.1043"/>
</g>
</g>
</svg>
