<?xml version="1.0" encoding="UTF-8" standalone="no"?>
<?xml-stylesheet href="../../graphviz.css" type="text/css"?>
<!DOCTYPE svg PUBLIC "-//W3C//DTD SVG 1.1//EN"
 "http://www.w3.org/Graphics/SVG/1.1/DTD/svg11.dtd">
<!-- Generated by graphviz version 2.38.0 (20140413.2041)
 -->
<!-- Title: G Pages: 1 -->
<svg width="451pt" height="332pt"
 viewBox="0.00 0.00 450.79 332.00" xmlns="http://www.w3.org/2000/svg" xmlns:xlink="http://www.w3.org/1999/xlink">
<g id="graph0" class="graph" transform="scale(1 1) rotate(0) translate(4 328)">
<title>G</title>
<polygon fill="white" stroke="none" points="-4,4 -4,-328 446.788,-328 446.788,4 -4,4"/>
<!-- load_html -->
<g id="node1" class="node"><title>load_html</title>
<ellipse fill="none" stroke="black" cx="185.396" cy="-306" rx="57.6901" ry="18"/>
<text text-anchor="middle" x="185.396" y="-302.3" font-family="Times New Roman,serif" font-size="14.00">Load HTML</text>
</g>
<!-- parse_html -->
<g id="node2" class="node"><title>parse_html</title>
<ellipse fill="none" stroke="black" cx="185.396" cy="-234" rx="58.4896" ry="18"/>
<text text-anchor="middle" x="185.396" y="-230.3" font-family="Times New Roman,serif" font-size="14.00">Parse HTML</text>
</g>
<!-- load_html&#45;&gt;parse_html -->
<g id="edge1" class="edge"><title>load_html&#45;&gt;parse_html</title>
<path fill="none" stroke="black" d="M185.396,-287.697C185.396,-279.983 185.396,-270.712 185.396,-262.112"/>
<polygon fill="black" stroke="black" points="188.896,-262.104 185.396,-252.104 181.896,-262.104 188.896,-262.104"/>
</g>
<!-- load_css -->
<g id="node3" class="node"><title>load_css</title>
<ellipse fill="none" stroke="black" cx="49.3956" cy="-162" rx="49.2915" ry="18"/>
<text text-anchor="middle" x="49.3956" y="-158.3" font-family="Times New Roman,serif" font-size="14.00">Load CSS</text>
</g>
<!-- parse_html&#45;&gt;load_css -->
<g id="edge2" class="edge"><title>parse_html&#45;&gt;load_css</title>
<path fill="none" stroke="black" d="M156.554,-218.155C135.949,-207.55 108.069,-193.2 85.9124,-181.795"/>
<polygon fill="black" stroke="black" points="87.2979,-178.572 76.8047,-177.108 84.0943,-184.796 87.2979,-178.572"/>
</g>
<!-- load_javascript -->
<g id="node4" class="node"><title>load_javascript</title>
<ellipse fill="none" stroke="black" cx="185.396" cy="-162" rx="68.4888" ry="18"/>
<text text-anchor="middle" x="185.396" y="-158.3" font-family="Times New Roman,serif" font-size="14.00">Load Javascript</text>
</g>
<!-- parse_html&#45;&gt;load_javascript -->
<g id="edge3" class="edge"><title>parse_html&#45;&gt;load_javascript</title>
<path fill="none" stroke="black" d="M185.396,-215.697C185.396,-207.983 185.396,-198.712 185.396,-190.112"/>
<polygon fill="black" stroke="black" points="188.896,-190.104 185.396,-180.104 181.896,-190.104 188.896,-190.104"/>
</g>
<!-- finish_html -->
<g id="node6" class="node"><title>finish_html</title>
<ellipse fill="none" stroke="black" cx="346.396" cy="-162" rx="60.3893" ry="18"/>
<text text-anchor="middle" x="346.396" y="-158.3" font-family="Times New Roman,serif" font-size="14.00">Finish HTML</text>
</g>
<!-- parse_html&#45;&gt;finish_html -->
<g id="edge4" class="edge"><title>parse_html&#45;&gt;finish_html</title>
<path fill="none" stroke="black" d="M217.976,-218.834C242.881,-208.006 277.406,-192.995 304.387,-181.265"/>
<polygon fill="black" stroke="black" points="305.812,-184.462 313.587,-177.264 303.021,-178.042 305.812,-184.462"/>
</g>
<!-- parse_javascript -->
<g id="node5" class="node"><title>parse_javascript</title>
<ellipse fill="none" stroke="black" cx="178.396" cy="-90" rx="69.5877" ry="18"/>
<text text-anchor="middle" x="178.396" y="-86.3" font-family="Times New Roman,serif" font-size="14.00">Parse Javascript</text>
</g>
<!-- load_javascript&#45;&gt;parse_javascript -->
<g id="edge5" class="edge"><title>load_javascript&#45;&gt;parse_javascript</title>
<path fill="none" stroke="black" d="M183.665,-143.697C182.894,-135.983 181.967,-126.712 181.107,-118.112"/>
<polygon fill="black" stroke="black" points="184.584,-117.706 180.106,-108.104 177.619,-118.403 184.584,-117.706"/>
</g>
<!-- js_runs -->
<g id="node8" class="node"><title>js_runs</title>
<ellipse fill="none" stroke="black" cx="266.396" cy="-18" rx="64.9885" ry="18"/>
<text text-anchor="middle" x="266.396" y="-14.3" font-family="Times New Roman,serif" font-size="14.00">Javascript runs</text>
</g>
<!-- parse_javascript&#45;&gt;js_runs -->
<g id="edge6" class="edge"><title>parse_javascript&#45;&gt;js_runs</title>
<path fill="none" stroke="black" d="M198.806,-72.7646C210.468,-63.488 225.269,-51.7144 238.046,-41.5511"/>
<polygon fill="black" stroke="black" points="240.449,-44.1117 246.096,-35.1473 236.091,-38.6335 240.449,-44.1117"/>
</g>
<!-- dom_loaded -->
<g id="node7" class="node"><title>dom_loaded</title>
<ellipse fill="none" stroke="black" cx="354.396" cy="-90" rx="88.2844" ry="18"/>
<text text-anchor="middle" x="354.396" y="-86.3" font-family="Times New Roman,serif" font-size="14.00">DOMContentLoaded</text>
</g>
<!-- finish_html&#45;&gt;dom_loaded -->
<g id="edge7" class="edge"><title>finish_html&#45;&gt;dom_loaded</title>
<path fill="none" stroke="black" d="M348.373,-143.697C349.255,-135.983 350.314,-126.712 351.297,-118.112"/>
<polygon fill="black" stroke="black" points="354.783,-118.437 352.441,-108.104 347.828,-117.642 354.783,-118.437"/>
</g>
<!-- dom_loaded&#45;&gt;js_runs -->
<g id="edge8" class="edge"><title>dom_loaded&#45;&gt;js_runs</title>
<path fill="none" stroke="black" d="M333.541,-72.411C321.95,-63.1911 307.364,-51.5885 294.75,-41.5547"/>
<polygon fill="black" stroke="black" points="296.802,-38.7146 286.797,-35.2285 292.444,-44.1929 296.802,-38.7146"/>
</g>
</g>
</svg>
